<svg xmlns="http://www.w3.org/2000/svg" width="160" height="160" viewBox="0 0 160 160" shape-rendering="crispEdges">
  <rect width="160" height="160" fill="#111611"/>
  <g fill="#1a1f1b">
    <rect x="0" y="0" width="48" height="24"/><rect x="48" y="0" width="72" height="24"/><rect x="120" y="0" width="40" height="24"/>
    <rect x="0" y="24" width="28" height="32"/><rect x="28" y="24" width="76" height="32"/><rect x="104" y="24" width="56" height="32"/>
    <rect x="0" y="56" width="64" height="30"/><rect x="64" y="56" width="48" height="30"/><rect x="112" y="56" width="48" height="30"/>
    <rect x="0" y="86" width="40" height="34"/><rect x="40" y="86" width="80" height="34"/><rect x="120" y="86" width="40" height="34"/>
    <rect x="0" y="120" width="72" height="40"/><rect x="72" y="120" width="88" height="40"/>
  </g>
  <g fill="none" stroke="#2b3028" stroke-width="2">
    <path d="M0 24h160M0 56h160M0 86h160M0 120h160M48 0v24M120 0v24M28 24v32M104 24v32M64 56v30M112 56v30M40 86v34M120 86v34M72 120v40"/>
  </g>
  <g fill="#242922" opacity=".72">
    <rect x="10" y="7" width="12" height="5"/><rect x="58" y="10" width="10" height="4"/><rect x="132" y="8" width="9" height="5"/>
    <rect x="34" y="33" width="15" height="5"/><rect x="78" y="45" width="8" height="4"/><rect x="126" y="36" width="14" height="5"/>
    <rect x="17" y="68" width="10" height="4"/><rect x="74" y="72" width="13" height="5"/><rect x="130" y="70" width="8" height="4"/>
    <rect x="8" y="101" width="14" height="5"/><rect x="52" y="96" width="9" height="5"/><rect x="92" y="109" width="16" height="4"/>
    <rect x="20" y="138" width="12" height="5"/><rect x="90" y="132" width="10" height="4"/><rect x="134" y="146" width="12" height="5"/>
  </g>
  <g fill="#263f16" opacity=".7">
    <rect x="0" y="36" width="5" height="18"/><rect x="5" y="50" width="6" height="6"/>
    <rect x="148" y="92" width="4" height="20"/><rect x="152" y="108" width="7" height="7"/>
    <rect x="62" y="120" width="8" height="5"/><rect x="70" y="125" width="4" height="9"/>
  </g>
</svg>
